<svg width="320" height="320" viewBox="0 0 320 320" fill="none" xmlns="http://www.w3.org/2000/svg">
<circle cx="160" cy="160" r="157.5" fill="#1A1A1A" stroke="#E6294B" stroke-width="5"/>
<circle cx="157" cy="163" r="98" fill="#0A0A0A" stroke="#E6294B" stroke-width="4"/>
<path d="M92.2305 152.284H98.4414C100.121 152.284 101.41 152.416 102.309 152.68C103.217 152.943 103.896 153.324 104.345 153.822C104.804 154.32 105.111 154.926 105.268 155.639C105.434 156.342 105.517 157.436 105.517 158.92V160.985C105.517 162.499 105.36 163.603 105.048 164.296C104.735 164.989 104.159 165.521 103.319 165.893C102.489 166.264 101.4 166.449 100.053 166.449H98.3975V176H92.2305V152.284ZM98.3975 156.342V162.377C98.5732 162.387 98.7246 162.392 98.8516 162.392C99.418 162.392 99.8086 162.255 100.023 161.981C100.248 161.698 100.36 161.117 100.36 160.238V158.29C100.36 157.479 100.233 156.952 99.9795 156.708C99.7256 156.464 99.1982 156.342 98.3975 156.342ZM117.177 152.284L120.707 176H114.394L114.086 171.737H111.874L111.508 176H105.121L108.256 152.284H117.177ZM113.91 167.533C113.598 164.848 113.285 161.532 112.973 157.587C112.348 162.118 111.957 165.434 111.801 167.533H113.91ZM135.531 152.284V176H130.126L126.918 165.219V176H121.762V152.284H126.918L130.375 162.963V152.284H135.531ZM152.714 152.284L149.184 162.992L153.051 176H146.679L144.188 165.834V176H138.021V152.284H144.188V161.498L146.928 152.284H152.714ZM161.21 164.237V168.324H153.432V164.237H161.21ZM162.982 152.284H167.348C170.258 152.284 172.226 152.396 173.251 152.621C174.286 152.846 175.126 153.422 175.771 154.35C176.425 155.268 176.752 156.737 176.752 158.759C176.752 160.604 176.522 161.845 176.063 162.479C175.604 163.114 174.701 163.495 173.354 163.622C174.574 163.925 175.395 164.33 175.814 164.838C176.234 165.346 176.493 165.814 176.591 166.244C176.698 166.664 176.752 167.831 176.752 169.745V176H171.024V168.119C171.024 166.85 170.922 166.063 170.717 165.761C170.521 165.458 169.999 165.307 169.149 165.307V176H162.982V152.284ZM169.149 156.342V161.615C169.843 161.615 170.326 161.522 170.6 161.337C170.883 161.142 171.024 160.521 171.024 159.477V158.173C171.024 157.421 170.888 156.928 170.614 156.693C170.351 156.459 169.862 156.342 169.149 156.342ZM193.246 166.171C193.246 168.554 193.188 170.243 193.07 171.239C192.963 172.226 192.611 173.129 192.016 173.949C191.43 174.77 190.634 175.399 189.628 175.839C188.622 176.278 187.45 176.498 186.112 176.498C184.843 176.498 183.7 176.293 182.685 175.883C181.679 175.463 180.868 174.838 180.253 174.008C179.638 173.178 179.271 172.274 179.154 171.298C179.037 170.321 178.979 168.612 178.979 166.171V162.113C178.979 159.73 179.032 158.046 179.14 157.06C179.257 156.063 179.608 155.155 180.194 154.335C180.79 153.515 181.591 152.885 182.597 152.445C183.603 152.006 184.774 151.786 186.112 151.786C187.382 151.786 188.52 151.996 189.525 152.416C190.541 152.826 191.356 153.446 191.972 154.276C192.587 155.106 192.953 156.01 193.07 156.986C193.188 157.963 193.246 159.672 193.246 162.113V166.171ZM187.079 158.378C187.079 157.274 187.016 156.571 186.889 156.269C186.771 155.956 186.522 155.8 186.142 155.8C185.819 155.8 185.57 155.927 185.395 156.181C185.229 156.425 185.146 157.157 185.146 158.378V169.452C185.146 170.829 185.199 171.679 185.307 172.001C185.424 172.323 185.688 172.484 186.098 172.484C186.518 172.484 186.786 172.299 186.903 171.928C187.021 171.557 187.079 170.673 187.079 169.276V158.378ZM209.96 162.626H203.793V158.495C203.793 157.294 203.725 156.547 203.588 156.254C203.461 155.951 203.173 155.8 202.724 155.8C202.216 155.8 201.894 155.98 201.757 156.342C201.62 156.703 201.552 157.484 201.552 158.686V169.701C201.552 170.854 201.62 171.605 201.757 171.957C201.894 172.309 202.201 172.484 202.68 172.484C203.139 172.484 203.437 172.309 203.573 171.957C203.72 171.605 203.793 170.78 203.793 169.481V166.508H209.96V167.431C209.96 169.882 209.784 171.62 209.433 172.646C209.091 173.671 208.324 174.569 207.133 175.341C205.951 176.112 204.491 176.498 202.753 176.498C200.946 176.498 199.457 176.171 198.285 175.517C197.113 174.862 196.337 173.959 195.956 172.807C195.575 171.645 195.385 169.901 195.385 167.577V160.648C195.385 158.939 195.443 157.66 195.561 156.811C195.678 155.951 196.024 155.126 196.601 154.335C197.187 153.544 197.992 152.924 199.018 152.475C200.053 152.016 201.239 151.786 202.577 151.786C204.394 151.786 205.893 152.138 207.074 152.841C208.256 153.544 209.032 154.423 209.403 155.478C209.774 156.522 209.96 158.153 209.96 160.37V162.626ZM226.864 152.284L223.334 162.992L227.201 176H220.829L218.339 165.834V176H212.172V152.284H218.339V161.498L221.078 152.284H226.864Z" fill="#E6294B"/>
<g filter="url(#filter0_dd_44_45)">
<circle cx="158" cy="164" r="30" fill="#0A0A0A"/>
<circle cx="158" cy="164" r="27.5" stroke="#E6294B" stroke-width="5"/>
</g>
<path opacity="0.16" d="M139.5 15.4482L165.75 15.4484L157.5 66.0004L137.5 68.0004L139.5 15.4482Z" fill="#0A0A0A"/>
<path opacity="0.16" d="M84.5123 34.5706L111.133 24.2715L118.546 74.629L101.003 84.9994L84.5123 34.5706Z" fill="#0A0A0A"/>
<path opacity="0.16" d="M39.5787 76.788L58.1844 54.4202L86.1089 98.1357L72.5002 116.501L39.5787 76.788Z" fill="#0A0A0A"/>
<path opacity="0.16" d="M18.5001 142L27.4993 107.001L64.5015 134.001L60.5015 150.001L18.5001 142Z" fill="#0A0A0A"/>
<path opacity="0.16" d="M26.0001 198.5L16.5016 166.503L59.5512 167.08L60.5 184L26.0001 198.5Z" fill="#0A0A0A"/>
<path opacity="0.16" d="M57 253.5L36.4885 226.5L64.5 198.5L71.5 214.5L57 253.5Z" fill="#0A0A0A"/>
<path opacity="0.16" d="M100.007 292.999L80.0032 271.996L84.0032 231.995L100.502 247L100.007 292.999Z" fill="#0A0A0A"/>
<path opacity="0.16" d="M154.5 307.001L127.484 300.493L121.491 258.49L144.485 264.993L154.5 307.001Z" fill="#0A0A0A"/>
<path opacity="0.16" d="M189 19.5L212 25.5L198.5 74L179 68L189 19.5Z" fill="#0A0A0A"/>
<path opacity="0.16" d="M232.5 37L250 50L229 94.5L214 82.5L232.5 37Z" fill="#0A0A0A"/>
<path opacity="0.16" d="M267 68.5006L285 90.5L249.504 124L241.004 109L267 68.5006Z" fill="#0A0A0A"/>
<path opacity="0.16" d="M293.5 117L301.5 144L258.499 153.999L255.498 140.999L293.5 117Z" fill="#0A0A0A"/>
<path opacity="0.16" d="M303 167.5L300.5 192L257.257 186.167L258.507 171.995L303 167.5Z" fill="#0A0A0A"/>
<path opacity="0.16" d="M293 218.5L279 244L245.008 216.997L251.56 204.181L293 218.5Z" fill="#0A0A0A"/>
<path opacity="0.16" d="M258.5 267.5L231 285L219.441 245.502L231.941 234.002L258.5 267.5Z" fill="#0A0A0A"/>
<path opacity="0.16" d="M203.001 296.001L173.5 304L173.5 265L200.076 256.066L203.001 296.001Z" fill="#0A0A0A"/>
<path opacity="0.16" d="M165.5 15.5L188.75 19.4L179 68L157.5 66L165.5 15.5Z" fill="#E6294B"/>
<path opacity="0.16" d="M111 24.5L139.49 15.4997L137.877 69.1812L118.496 74.4987L111 24.5Z" fill="#E6294B"/>
<path opacity="0.16" d="M58.469 54.5538L85.3413 34.6184L101.02 84.6899L85.9987 98.4998L58.469 54.5538Z" fill="#E6294B"/>
<path opacity="0.16" d="M36.5024 226.504L25.989 198.511L60.5 183.5L64.501 198.508L36.5024 226.504Z" fill="#E6294B"/>
<path opacity="0.16" d="M80.0001 272.5L57.494 253.503L71.5043 214.503L83.9955 231.503L80.0001 272.5Z" fill="#E6294B"/>
<path opacity="0.16" d="M128 300.5L99.9983 292.5L100.511 246.499L121.5 258.5L128 300.5Z" fill="#E6294B"/>
<g opacity="0.16">
<path d="M28.0031 107.502L39.4835 76.4984L72.119 115.893L67.0903 135.668L28.0031 107.502Z" fill="#E6294B"/>
<path d="M16.4995 166.5L18.504 142.001L60.0051 150.501L59.004 167.001L16.4995 166.5Z" fill="#E6294B"/>
</g>
<path opacity="0.16" d="M212 25.5L232.5 37L214 82.5L198 74.5L212 25.5Z" fill="#E6294B"/>
<path opacity="0.16" d="M250 50L267 68.5L241 109L229 94.5L250 50Z" fill="#E6294B"/>
<path opacity="0.16" d="M285.001 90.5L293.688 117.007L252.839 142.456L248.211 124.212L285.001 90.5Z" fill="#E6294B"/>
<path opacity="0.16" d="M301.501 143.999L303 167.5L256.464 172.336L258.282 153.603L301.501 143.999Z" fill="#E6294B"/>
<path opacity="0.16" d="M300.499 191.501L293 218.5L248.734 203.373L255.727 185.899L300.499 191.501Z" fill="#E6294B"/>
<path opacity="0.16" d="M278.999 244L258.5 267.5L231.924 234L244.924 217L278.999 244Z" fill="#E6294B"/>
<path opacity="0.16" d="M231 285L203 296L200 256.987L218.995 245.491L231 285Z" fill="#E6294B"/>
<path opacity="0.16" d="M173.5 304L154.514 306.506L144.502 265.009L173.504 265.009L173.5 304Z" fill="#E6294B"/>
<defs>
<filter id="filter0_dd_44_45" x="72.8" y="78.8" width="170.4" height="170.4" filterUnits="userSpaceOnUse" color-interpolation-filters="sRGB">
<feFlood flood-opacity="0" result="BackgroundImageFix"/>
<feColorMatrix in="SourceAlpha" type="matrix" values="0 0 0 0 0 0 0 0 0 0 0 0 0 0 0 0 0 0 127 0" result="hardAlpha"/>
<feMorphology radius="11" operator="dilate" in="SourceAlpha" result="effect1_dropShadow_44_45"/>
<feOffset/>
<feGaussianBlur stdDeviation="22.1"/>
<feComposite in2="hardAlpha" operator="out"/>
<feColorMatrix type="matrix" values="0 0 0 0 0.901961 0 0 0 0 0.160784 0 0 0 0 0.294118 0 0 0 0.25 0"/>
<feBlend mode="normal" in2="BackgroundImageFix" result="effect1_dropShadow_44_45"/>
<feColorMatrix in="SourceAlpha" type="matrix" values="0 0 0 0 0 0 0 0 0 0 0 0 0 0 0 0 0 0 127 0" result="hardAlpha"/>
<feOffset/>
<feGaussianBlur stdDeviation="2.2"/>
<feComposite in2="hardAlpha" operator="out"/>
<feColorMatrix type="matrix" values="0 0 0 0 0.901961 0 0 0 0 0.160784 0 0 0 0 0.294118 0 0 0 0.25 0"/>
<feBlend mode="normal" in2="effect1_dropShadow_44_45" result="effect2_dropShadow_44_45"/>
<feBlend mode="normal" in="SourceGraphic" in2="effect2_dropShadow_44_45" result="shape"/>
</filter>
</defs>
</svg>
